<svg id="グループ_257" data-name="グループ 257" xmlns="http://www.w3.org/2000/svg" width="16" height="13" viewBox="0 0 16 13">
  <path id="パス_1864" data-name="パス 1864" d="M3.708,0A3.613,3.613,0,0,0,0,3.53,3.628,3.628,0,0,0,3.729,7.024a3.893,3.893,0,0,0,1.142-.176C4.752,11.612,0,13,0,13c6.345,0,7.262-6.945,7.394-8.951A3.691,3.691,0,0,0,3.708,0Z" transform="translate(0)"/>
  <path id="パス_1865" data-name="パス 1865" d="M3.708,0A3.613,3.613,0,0,0,0,3.53,3.628,3.628,0,0,0,3.729,7.024a3.894,3.894,0,0,0,1.142-.176C4.752,11.612,0,13,0,13c6.345,0,7.262-6.945,7.394-8.951A3.691,3.691,0,0,0,3.708,0Z" transform="translate(8.597)"/>
</svg>
